<svg width="222" height="55" viewBox="0 0 222 55" fill="none" xmlns="http://www.w3.org/2000/svg">
<path d="M4.62598 17.6719H13.0195C14.6602 17.6719 16.0859 17.916 17.2969 18.4043C18.5078 18.8926 19.4404 19.6152 20.0947 20.5723C20.7588 21.5293 21.0908 22.7109 21.0908 24.1172C21.0908 25.3379 20.9004 26.3584 20.5195 27.1787C20.1387 27.999 19.6064 28.6777 18.9229 29.2148C18.249 29.7422 17.4629 30.1768 16.5645 30.5186L14.8799 31.4707H7.83398L7.80469 27.501H13.0195C13.6738 27.501 14.2158 27.3838 14.6455 27.1494C15.0752 26.915 15.3975 26.583 15.6123 26.1533C15.8369 25.7139 15.9492 25.1914 15.9492 24.5859C15.9492 23.9707 15.8369 23.4434 15.6123 23.0039C15.3877 22.5645 15.0557 22.2275 14.6162 21.9932C14.1865 21.7588 13.6543 21.6416 13.0195 21.6416H9.76758V39H4.62598V17.6719ZM16.3008 39L11.584 29.5664L17.0332 29.5371L21.8086 38.7803V39H16.3008ZM38.874 35.0449V39H27.5068V35.0449H38.874ZM29.3379 17.6719V39H24.1963V17.6719H29.3379ZM37.4092 26.1387V29.9619H27.5068V26.1387H37.4092ZM38.918 17.6719V21.6416H27.5068V17.6719H38.918ZM58.7959 17.6719V39H53.6689L46.125 25.7285V39H40.9834V17.6719H46.125L53.6689 30.9434V17.6719H58.7959ZM80.0947 27.9111V28.7754C80.0947 30.4062 79.8652 31.8711 79.4062 33.1699C78.957 34.459 78.3174 35.5625 77.4873 36.4805C76.6572 37.3887 75.6758 38.0869 74.543 38.5752C73.4102 39.0537 72.1602 39.293 70.793 39.293C69.416 39.293 68.1562 39.0537 67.0137 38.5752C65.8809 38.0869 64.8945 37.3887 64.0547 36.4805C63.2246 35.5625 62.5801 34.459 62.1211 33.1699C61.6719 31.8711 61.4473 30.4062 61.4473 28.7754V27.9111C61.4473 26.2803 61.6719 24.8154 62.1211 23.5166C62.5801 22.2178 63.2197 21.1143 64.04 20.2061C64.8701 19.2881 65.8516 18.5898 66.9844 18.1113C68.127 17.623 69.3867 17.3789 70.7637 17.3789C72.1309 17.3789 73.3809 17.623 74.5137 18.1113C75.6562 18.5898 76.6426 19.2881 77.4727 20.2061C78.3027 21.1143 78.9473 22.2178 79.4062 23.5166C79.8652 24.8154 80.0947 26.2803 80.0947 27.9111ZM74.8799 28.7754V27.8818C74.8799 26.8271 74.7871 25.8994 74.6016 25.0986C74.4258 24.2881 74.1621 23.6094 73.8105 23.0625C73.459 22.5156 73.0244 22.1055 72.5068 21.832C71.999 21.5488 71.418 21.4072 70.7637 21.4072C70.0801 21.4072 69.4844 21.5488 68.9766 21.832C68.4688 22.1055 68.0439 22.5156 67.7021 23.0625C67.3604 23.6094 67.1016 24.2881 66.9258 25.0986C66.7598 25.8994 66.6768 26.8271 66.6768 27.8818V28.7754C66.6768 29.8203 66.7598 30.748 66.9258 31.5586C67.1016 32.3594 67.3604 33.0381 67.7021 33.5947C68.0537 34.1514 68.4834 34.5713 68.9912 34.8545C69.5088 35.1377 70.1094 35.2793 70.793 35.2793C71.4473 35.2793 72.0283 35.1377 72.5361 34.8545C73.0439 34.5713 73.4688 34.1514 73.8105 33.5947C74.1621 33.0381 74.4258 32.3594 74.6016 31.5586C74.7871 30.748 74.8799 29.8203 74.8799 28.7754Z" fill="white"/>
</svg>
