<svg width="222" height="55" viewBox="0 0 222 55" fill="none" xmlns="http://www.w3.org/2000/svg">
<path d="M13.3271 29.9326H7.83398L7.80469 26.5635H12.2578C13.0586 26.5635 13.6982 26.4756 14.1768 26.2998C14.6553 26.1143 15.002 25.8457 15.2168 25.4941C15.4414 25.1426 15.5537 24.7031 15.5537 24.1758C15.5537 23.5703 15.4414 23.082 15.2168 22.7109C14.9922 22.3398 14.6357 22.0713 14.1475 21.9053C13.6689 21.7295 13.0488 21.6416 12.2871 21.6416H9.76758V39H4.62598V17.6719H12.2871C13.6055 17.6719 14.7822 17.7939 15.8174 18.0381C16.8525 18.2725 17.7314 18.6338 18.4541 19.1221C19.1865 19.6104 19.7432 20.2256 20.124 20.9678C20.5049 21.7002 20.6953 22.5645 20.6953 23.5605C20.6953 24.4297 20.5098 25.2451 20.1387 26.0068C19.7676 26.7686 19.1475 27.3887 18.2783 27.8672C17.4189 28.3359 16.2422 28.5801 14.748 28.5996L13.3271 29.9326ZM13.1221 39H6.58887L8.34668 35.0449H13.1221C13.8252 35.0449 14.3867 34.9375 14.8066 34.7227C15.2363 34.498 15.5439 34.2051 15.7295 33.8438C15.9248 33.4727 16.0225 33.0625 16.0225 32.6133C16.0225 32.0664 15.9297 31.5928 15.7441 31.1924C15.5684 30.792 15.2852 30.4844 14.8945 30.2695C14.5039 30.0449 13.9814 29.9326 13.3271 29.9326H9.00586L9.03516 26.5635H14.2061L15.4072 27.9111C16.833 27.8525 17.9609 28.0527 18.791 28.5117C19.6309 28.9707 20.2314 29.5762 20.5928 30.3281C20.9541 31.0801 21.1348 31.8662 21.1348 32.6865C21.1348 34.083 20.832 35.25 20.2266 36.1875C19.6309 37.125 18.7373 37.8281 17.5459 38.2969C16.3545 38.7656 14.8799 39 13.1221 39ZM35.5635 17.6719H40.7051V31.6025C40.7051 33.2627 40.3584 34.6689 39.665 35.8213C38.9717 36.9639 38 37.8281 36.75 38.4141C35.5 39 34.0303 39.293 32.3408 39.293C30.6709 39.293 29.2012 39 27.9316 38.4141C26.6719 37.8281 25.6855 36.9639 24.9727 35.8213C24.2695 34.6689 23.918 33.2627 23.918 31.6025V17.6719H29.0742V31.6025C29.0742 32.4814 29.2012 33.1992 29.4551 33.7559C29.709 34.3027 30.0801 34.7031 30.5684 34.957C31.0566 35.2109 31.6475 35.3379 32.3408 35.3379C33.0439 35.3379 33.6348 35.2109 34.1133 34.957C34.5918 34.7031 34.9531 34.3027 35.1973 33.7559C35.4414 33.1992 35.5635 32.4814 35.5635 31.6025V17.6719ZM49.4062 17.6719V39H44.2793V17.6719H49.4062ZM67.1162 35.0449V39H56.335V35.0449H67.1162ZM58.166 17.6719V39H53.0244V17.6719H58.166ZM76.2129 39H71.4814L71.5107 35.0449H76.2129C77.1895 35.0449 78.0146 34.8105 78.6885 34.3418C79.3721 33.873 79.8896 33.1748 80.2412 32.2471C80.6025 31.3096 80.7832 30.1572 80.7832 28.79V27.8672C80.7832 26.8418 80.6807 25.9434 80.4756 25.1719C80.2803 24.3906 79.9873 23.7412 79.5967 23.2236C79.2061 22.6963 78.7178 22.3008 78.1318 22.0371C77.5557 21.7734 76.8916 21.6416 76.1396 21.6416H71.3936V17.6719H76.1396C77.585 17.6719 78.9082 17.9209 80.1094 18.4189C81.3203 18.9072 82.3652 19.6104 83.2441 20.5283C84.1328 21.4365 84.8164 22.5156 85.2949 23.7656C85.7832 25.0059 86.0273 26.3828 86.0273 27.8965V28.79C86.0273 30.2939 85.7832 31.6709 85.2949 32.9209C84.8164 34.1709 84.1377 35.25 83.2588 36.1582C82.3799 37.0664 81.3398 37.7695 80.1387 38.2676C78.9473 38.7559 77.6387 39 76.2129 39ZM74.4258 17.6719V39H69.2842V17.6719H74.4258Z" fill="white"/>
</svg>
