<svg width="222" height="55" viewBox="0 0 222 55" fill="none" xmlns="http://www.w3.org/2000/svg">
<path d="M13.1367 31.7637H7.83398V27.7939H13.1367C13.8594 27.7939 14.4453 27.6719 14.8945 27.4277C15.3438 27.1836 15.6709 26.8467 15.876 26.417C16.0908 25.9775 16.1982 25.4844 16.1982 24.9375C16.1982 24.3516 16.0908 23.8096 15.876 23.3115C15.6709 22.8135 15.3438 22.4131 14.8945 22.1104C14.4453 21.7979 13.8594 21.6416 13.1367 21.6416H9.76758V39H4.62598V17.6719H13.1367C14.8457 17.6719 16.3154 17.9844 17.5459 18.6094C18.7861 19.2344 19.7383 20.0938 20.4023 21.1875C21.0664 22.2715 21.3984 23.5117 21.3984 24.9082C21.3984 26.2852 21.0664 27.4863 20.4023 28.5117C19.7383 29.5371 18.7861 30.3379 17.5459 30.9141C16.3154 31.4805 14.8457 31.7637 13.1367 31.7637ZM24.167 17.6719H32.5605C34.2012 17.6719 35.627 17.916 36.8379 18.4043C38.0488 18.8926 38.9814 19.6152 39.6357 20.5723C40.2998 21.5293 40.6318 22.7109 40.6318 24.1172C40.6318 25.3379 40.4414 26.3584 40.0605 27.1787C39.6797 27.999 39.1475 28.6777 38.4639 29.2148C37.79 29.7422 37.0039 30.1768 36.1055 30.5186L34.4209 31.4707H27.375L27.3457 27.501H32.5605C33.2148 27.501 33.7568 27.3838 34.1865 27.1494C34.6162 26.915 34.9385 26.583 35.1533 26.1533C35.3779 25.7139 35.4902 25.1914 35.4902 24.5859C35.4902 23.9707 35.3779 23.4434 35.1533 23.0039C34.9287 22.5645 34.5967 22.2275 34.1572 21.9932C33.7275 21.7588 33.1953 21.6416 32.5605 21.6416H29.3086V39H24.167V17.6719ZM35.8418 39L31.125 29.5664L36.5742 29.5371L41.3496 38.7803V39H35.8418ZM61.7842 27.9111V28.7754C61.7842 30.4062 61.5547 31.8711 61.0957 33.1699C60.6465 34.459 60.0068 35.5625 59.1768 36.4805C58.3467 37.3887 57.3652 38.0869 56.2324 38.5752C55.0996 39.0537 53.8496 39.293 52.4824 39.293C51.1055 39.293 49.8457 39.0537 48.7031 38.5752C47.5703 38.0869 46.584 37.3887 45.7441 36.4805C44.9141 35.5625 44.2695 34.459 43.8105 33.1699C43.3613 31.8711 43.1367 30.4062 43.1367 28.7754V27.9111C43.1367 26.2803 43.3613 24.8154 43.8105 23.5166C44.2695 22.2178 44.9092 21.1143 45.7295 20.2061C46.5596 19.2881 47.541 18.5898 48.6738 18.1113C49.8164 17.623 51.0762 17.3789 52.4531 17.3789C53.8203 17.3789 55.0703 17.623 56.2031 18.1113C57.3457 18.5898 58.332 19.2881 59.1621 20.2061C59.9922 21.1143 60.6367 22.2178 61.0957 23.5166C61.5547 24.8154 61.7842 26.2803 61.7842 27.9111ZM56.5693 28.7754V27.8818C56.5693 26.8271 56.4766 25.8994 56.291 25.0986C56.1152 24.2881 55.8516 23.6094 55.5 23.0625C55.1484 22.5156 54.7139 22.1055 54.1963 21.832C53.6885 21.5488 53.1074 21.4072 52.4531 21.4072C51.7695 21.4072 51.1738 21.5488 50.666 21.832C50.1582 22.1055 49.7334 22.5156 49.3916 23.0625C49.0498 23.6094 48.791 24.2881 48.6152 25.0986C48.4492 25.8994 48.3662 26.8271 48.3662 27.8818V28.7754C48.3662 29.8203 48.4492 30.748 48.6152 31.5586C48.791 32.3594 49.0498 33.0381 49.3916 33.5947C49.7432 34.1514 50.1729 34.5713 50.6807 34.8545C51.1982 35.1377 51.7988 35.2793 52.4824 35.2793C53.1367 35.2793 53.7178 35.1377 54.2256 34.8545C54.7334 34.5713 55.1582 34.1514 55.5 33.5947C55.8516 33.0381 56.1152 32.3594 56.291 31.5586C56.4766 30.748 56.5693 29.8203 56.5693 28.7754ZM71.3789 39H66.6475L66.6768 35.0449H71.3789C72.3555 35.0449 73.1807 34.8105 73.8545 34.3418C74.5381 33.873 75.0557 33.1748 75.4072 32.2471C75.7686 31.3096 75.9492 30.1572 75.9492 28.79V27.8672C75.9492 26.8418 75.8467 25.9434 75.6416 25.1719C75.4463 24.3906 75.1533 23.7412 74.7627 23.2236C74.3721 22.6963 73.8838 22.3008 73.2979 22.0371C72.7217 21.7734 72.0576 21.6416 71.3057 21.6416H66.5596V17.6719H71.3057C72.751 17.6719 74.0742 17.9209 75.2754 18.4189C76.4863 18.9072 77.5312 19.6104 78.4102 20.5283C79.2988 21.4365 79.9824 22.5156 80.4609 23.7656C80.9492 25.0059 81.1934 26.3828 81.1934 27.8965V28.79C81.1934 30.2939 80.9492 31.6709 80.4609 32.9209C79.9824 34.1709 79.3037 35.25 78.4248 36.1582C77.5459 37.0664 76.5059 37.7695 75.3047 38.2676C74.1133 38.7559 72.8047 39 71.3789 39ZM69.5918 17.6719V39H64.4502V17.6719H69.5918ZM95.4463 17.6719H100.588V31.6025C100.588 33.2627 100.241 34.6689 99.5479 35.8213C98.8545 36.9639 97.8828 37.8281 96.6328 38.4141C95.3828 39 93.9131 39.293 92.2236 39.293C90.5537 39.293 89.084 39 87.8145 38.4141C86.5547 37.8281 85.5684 36.9639 84.8555 35.8213C84.1523 34.6689 83.8008 33.2627 83.8008 31.6025V17.6719H88.957V31.6025C88.957 32.4814 89.084 33.1992 89.3379 33.7559C89.5918 34.3027 89.9629 34.7031 90.4512 34.957C90.9395 35.2109 91.5303 35.3379 92.2236 35.3379C92.9268 35.3379 93.5176 35.2109 93.9961 34.957C94.4746 34.7031 94.8359 34.3027 95.0801 33.7559C95.3242 33.1992 95.4463 32.4814 95.4463 31.6025V17.6719ZM115.954 31.7783H121.081C121.013 33.2627 120.612 34.5713 119.88 35.7041C119.147 36.8369 118.132 37.7207 116.833 38.3555C115.544 38.9805 114.021 39.293 112.263 39.293C110.837 39.293 109.562 39.0537 108.439 38.5752C107.326 38.0967 106.379 37.4082 105.598 36.5098C104.826 35.6113 104.235 34.5225 103.825 33.2432C103.425 31.9639 103.225 30.5234 103.225 28.9219V27.7646C103.225 26.1631 103.435 24.7227 103.854 23.4434C104.284 22.1543 104.89 21.0605 105.671 20.1621C106.462 19.2539 107.409 18.5605 108.513 18.082C109.616 17.6035 110.842 17.3643 112.189 17.3643C114.045 17.3643 115.612 17.6963 116.892 18.3604C118.171 19.0244 119.162 19.9375 119.865 21.0996C120.568 22.252 120.983 23.5654 121.11 25.04H115.983C115.964 24.2393 115.827 23.5703 115.573 23.0332C115.319 22.4863 114.919 22.0762 114.372 21.8027C113.825 21.5293 113.098 21.3926 112.189 21.3926C111.555 21.3926 111.003 21.5098 110.534 21.7441C110.065 21.9785 109.675 22.3496 109.362 22.8574C109.05 23.3652 108.815 24.0244 108.659 24.835C108.513 25.6357 108.439 26.6025 108.439 27.7354V28.9219C108.439 30.0547 108.508 31.0215 108.645 31.8223C108.781 32.623 109.001 33.2773 109.304 33.7852C109.606 34.293 109.997 34.6689 110.476 34.9131C110.964 35.1475 111.56 35.2646 112.263 35.2646C113.044 35.2646 113.703 35.1426 114.24 34.8984C114.777 34.6445 115.192 34.2637 115.485 33.7559C115.778 33.2383 115.935 32.5791 115.954 31.7783ZM133.4 17.6719V39H128.259V17.6719H133.4ZM139.816 17.6719V21.6416H121.989V17.6719H139.816ZM152.751 33.3311C152.751 32.999 152.702 32.7012 152.604 32.4375C152.507 32.1641 152.326 31.9102 152.062 31.6758C151.799 31.4414 151.418 31.207 150.92 30.9727C150.432 30.7285 149.787 30.4746 148.986 30.2109C148.049 29.8984 147.146 29.5469 146.276 29.1562C145.407 28.7559 144.631 28.292 143.947 27.7646C143.264 27.2275 142.722 26.6025 142.321 25.8896C141.921 25.167 141.721 24.3271 141.721 23.3701C141.721 22.4521 141.926 21.627 142.336 20.8945C142.746 20.1523 143.317 19.5225 144.05 19.0049C144.792 18.4775 145.661 18.0771 146.657 17.8037C147.653 17.5205 148.742 17.3789 149.924 17.3789C151.486 17.3789 152.863 17.6523 154.055 18.1992C155.256 18.7363 156.193 19.5029 156.867 20.499C157.551 21.4854 157.893 22.6523 157.893 24H152.78C152.78 23.4629 152.668 22.9893 152.443 22.5791C152.229 22.1689 151.901 21.8467 151.462 21.6123C151.022 21.3779 150.471 21.2607 149.807 21.2607C149.162 21.2607 148.62 21.3584 148.181 21.5537C147.741 21.749 147.409 22.0127 147.185 22.3447C146.96 22.667 146.848 23.0234 146.848 23.4141C146.848 23.7363 146.936 24.0293 147.111 24.293C147.297 24.5469 147.556 24.7861 147.888 25.0107C148.229 25.2354 148.64 25.4502 149.118 25.6553C149.606 25.8604 150.153 26.0605 150.759 26.2559C151.892 26.6172 152.897 27.0225 153.776 27.4717C154.665 27.9111 155.412 28.4141 156.018 28.9805C156.633 29.5371 157.097 30.1719 157.409 30.8848C157.731 31.5977 157.893 32.4033 157.893 33.3018C157.893 34.2588 157.707 35.1084 157.336 35.8506C156.965 36.5928 156.433 37.2227 155.739 37.7402C155.046 38.248 154.216 38.6338 153.249 38.8975C152.282 39.1611 151.203 39.293 150.012 39.293C148.918 39.293 147.839 39.1562 146.774 38.8828C145.72 38.5996 144.763 38.1699 143.903 37.5938C143.044 37.0078 142.355 36.2607 141.838 35.3525C141.33 34.4346 141.076 33.3457 141.076 32.0859H146.232C146.232 32.7109 146.315 33.2383 146.481 33.668C146.647 34.0977 146.892 34.4443 147.214 34.708C147.536 34.9619 147.932 35.1475 148.4 35.2646C148.869 35.3721 149.406 35.4258 150.012 35.4258C150.666 35.4258 151.193 35.333 151.594 35.1475C151.994 34.9521 152.287 34.6982 152.473 34.3857C152.658 34.0635 152.751 33.7119 152.751 33.3311Z" fill="white"/>
</svg>
