<svg width="222" height="55" viewBox="0 0 222 55" fill="none" xmlns="http://www.w3.org/2000/svg">
<path d="M22.0723 27.6035V36.3633C21.7109 36.7637 21.1543 37.1934 20.4023 37.6523C19.6602 38.1016 18.7227 38.4873 17.5898 38.8096C16.457 39.1318 15.124 39.293 13.5908 39.293C12.1748 39.293 10.8906 39.0684 9.73828 38.6191C8.58594 38.1602 7.59473 37.4912 6.76465 36.6123C5.94434 35.7236 5.30957 34.6396 4.86035 33.3604C4.4209 32.0713 4.20117 30.5967 4.20117 28.9365V27.75C4.20117 26.0898 4.42578 24.6152 4.875 23.3262C5.32422 22.0371 5.9541 20.9531 6.76465 20.0742C7.58496 19.1855 8.54688 18.5117 9.65039 18.0527C10.7637 17.5938 11.9844 17.3643 13.3125 17.3643C15.2754 17.3643 16.8721 17.6768 18.1025 18.3018C19.333 18.917 20.2656 19.7715 20.9004 20.8652C21.5352 21.9492 21.9209 23.2041 22.0576 24.6299H17.1211C17.0234 23.9268 16.8379 23.3311 16.5645 22.8428C16.3008 22.3447 15.9199 21.9688 15.4219 21.7148C14.9238 21.4512 14.2793 21.3193 13.4883 21.3193C12.873 21.3193 12.3115 21.4512 11.8037 21.7148C11.3057 21.9785 10.8809 22.3789 10.5293 22.916C10.1777 23.4434 9.9043 24.1074 9.70898 24.9082C9.52344 25.709 9.43066 26.6465 9.43066 27.7207V28.9365C9.43066 30.001 9.51855 30.9336 9.69434 31.7344C9.87988 32.5352 10.1533 33.2041 10.5146 33.7412C10.8857 34.2686 11.3545 34.6689 11.9209 34.9424C12.4971 35.2061 13.1758 35.3379 13.957 35.3379C14.5039 35.3379 14.9727 35.2939 15.3633 35.2061C15.7539 35.1084 16.0762 34.9912 16.3301 34.8545C16.5938 34.708 16.7939 34.5713 16.9307 34.4443V31.1338H13.3564V27.6035H22.0723ZM43.1221 27.9111V28.7754C43.1221 30.4062 42.8926 31.8711 42.4336 33.1699C41.9844 34.459 41.3447 35.5625 40.5146 36.4805C39.6846 37.3887 38.7031 38.0869 37.5703 38.5752C36.4375 39.0537 35.1875 39.293 33.8203 39.293C32.4434 39.293 31.1836 39.0537 30.041 38.5752C28.9082 38.0869 27.9219 37.3887 27.082 36.4805C26.252 35.5625 25.6074 34.459 25.1484 33.1699C24.6992 31.8711 24.4746 30.4062 24.4746 28.7754V27.9111C24.4746 26.2803 24.6992 24.8154 25.1484 23.5166C25.6074 22.2178 26.2471 21.1143 27.0674 20.2061C27.8975 19.2881 28.8789 18.5898 30.0117 18.1113C31.1543 17.623 32.4141 17.3789 33.791 17.3789C35.1582 17.3789 36.4082 17.623 37.541 18.1113C38.6836 18.5898 39.6699 19.2881 40.5 20.2061C41.3301 21.1143 41.9746 22.2178 42.4336 23.5166C42.8926 24.8154 43.1221 26.2803 43.1221 27.9111ZM37.9072 28.7754V27.8818C37.9072 26.8271 37.8145 25.8994 37.6289 25.0986C37.4531 24.2881 37.1895 23.6094 36.8379 23.0625C36.4863 22.5156 36.0518 22.1055 35.5342 21.832C35.0264 21.5488 34.4453 21.4072 33.791 21.4072C33.1074 21.4072 32.5117 21.5488 32.0039 21.832C31.4961 22.1055 31.0713 22.5156 30.7295 23.0625C30.3877 23.6094 30.1289 24.2881 29.9531 25.0986C29.7871 25.8994 29.7041 26.8271 29.7041 27.8818V28.7754C29.7041 29.8203 29.7871 30.748 29.9531 31.5586C30.1289 32.3594 30.3877 33.0381 30.7295 33.5947C31.0811 34.1514 31.5107 34.5713 32.0186 34.8545C32.5361 35.1377 33.1367 35.2793 33.8203 35.2793C34.4746 35.2793 35.0557 35.1377 35.5635 34.8545C36.0713 34.5713 36.4961 34.1514 36.8379 33.5947C37.1895 33.0381 37.4531 32.3594 37.6289 31.5586C37.8145 30.748 37.9072 29.8203 37.9072 28.7754ZM63.835 27.9111V28.7754C63.835 30.4062 63.6055 31.8711 63.1465 33.1699C62.6973 34.459 62.0576 35.5625 61.2275 36.4805C60.3975 37.3887 59.416 38.0869 58.2832 38.5752C57.1504 39.0537 55.9004 39.293 54.5332 39.293C53.1562 39.293 51.8965 39.0537 50.7539 38.5752C49.6211 38.0869 48.6348 37.3887 47.7949 36.4805C46.9648 35.5625 46.3203 34.459 45.8613 33.1699C45.4121 31.8711 45.1875 30.4062 45.1875 28.7754V27.9111C45.1875 26.2803 45.4121 24.8154 45.8613 23.5166C46.3203 22.2178 46.96 21.1143 47.7803 20.2061C48.6104 19.2881 49.5918 18.5898 50.7246 18.1113C51.8672 17.623 53.127 17.3789 54.5039 17.3789C55.8711 17.3789 57.1211 17.623 58.2539 18.1113C59.3965 18.5898 60.3828 19.2881 61.2129 20.2061C62.043 21.1143 62.6875 22.2178 63.1465 23.5166C63.6055 24.8154 63.835 26.2803 63.835 27.9111ZM58.6201 28.7754V27.8818C58.6201 26.8271 58.5273 25.8994 58.3418 25.0986C58.166 24.2881 57.9023 23.6094 57.5508 23.0625C57.1992 22.5156 56.7646 22.1055 56.2471 21.832C55.7393 21.5488 55.1582 21.4072 54.5039 21.4072C53.8203 21.4072 53.2246 21.5488 52.7168 21.832C52.209 22.1055 51.7842 22.5156 51.4424 23.0625C51.1006 23.6094 50.8418 24.2881 50.666 25.0986C50.5 25.8994 50.417 26.8271 50.417 27.8818V28.7754C50.417 29.8203 50.5 30.748 50.666 31.5586C50.8418 32.3594 51.1006 33.0381 51.4424 33.5947C51.7939 34.1514 52.2236 34.5713 52.7314 34.8545C53.249 35.1377 53.8496 35.2793 54.5332 35.2793C55.1875 35.2793 55.7686 35.1377 56.2764 34.8545C56.7842 34.5713 57.209 34.1514 57.5508 33.5947C57.9023 33.0381 58.166 32.3594 58.3418 31.5586C58.5273 30.748 58.6201 29.8203 58.6201 28.7754ZM73.4297 39H68.6982L68.7275 35.0449H73.4297C74.4062 35.0449 75.2314 34.8105 75.9053 34.3418C76.5889 33.873 77.1064 33.1748 77.458 32.2471C77.8193 31.3096 78 30.1572 78 28.79V27.8672C78 26.8418 77.8975 25.9434 77.6924 25.1719C77.4971 24.3906 77.2041 23.7412 76.8135 23.2236C76.4229 22.6963 75.9346 22.3008 75.3486 22.0371C74.7725 21.7734 74.1084 21.6416 73.3564 21.6416H68.6104V17.6719H73.3564C74.8018 17.6719 76.125 17.9209 77.3262 18.4189C78.5371 18.9072 79.582 19.6104 80.4609 20.5283C81.3496 21.4365 82.0332 22.5156 82.5117 23.7656C83 25.0059 83.2441 26.3828 83.2441 27.8965V28.79C83.2441 30.2939 83 31.6709 82.5117 32.9209C82.0332 34.1709 81.3545 35.25 80.4756 36.1582C79.5967 37.0664 78.5566 37.7695 77.3555 38.2676C76.1641 38.7559 74.8555 39 73.4297 39ZM71.6426 17.6719V39H66.501V17.6719H71.6426ZM96.9111 33.3311C96.9111 32.999 96.8623 32.7012 96.7646 32.4375C96.667 32.1641 96.4863 31.9102 96.2227 31.6758C95.959 31.4414 95.5781 31.207 95.0801 30.9727C94.5918 30.7285 93.9473 30.4746 93.1465 30.2109C92.209 29.8984 91.3057 29.5469 90.4365 29.1562C89.5674 28.7559 88.791 28.292 88.1074 27.7646C87.4238 27.2275 86.8818 26.6025 86.4814 25.8896C86.0811 25.167 85.8809 24.3271 85.8809 23.3701C85.8809 22.4521 86.0859 21.627 86.4961 20.8945C86.9062 20.1523 87.4775 19.5225 88.21 19.0049C88.9521 18.4775 89.8213 18.0771 90.8174 17.8037C91.8135 17.5205 92.9023 17.3789 94.084 17.3789C95.6465 17.3789 97.0234 17.6523 98.2148 18.1992C99.416 18.7363 100.354 19.5029 101.027 20.499C101.711 21.4854 102.053 22.6523 102.053 24H96.9404C96.9404 23.4629 96.8281 22.9893 96.6035 22.5791C96.3887 22.1689 96.0615 21.8467 95.6221 21.6123C95.1826 21.3779 94.6309 21.2607 93.9668 21.2607C93.3223 21.2607 92.7803 21.3584 92.3408 21.5537C91.9014 21.749 91.5693 22.0127 91.3447 22.3447C91.1201 22.667 91.0078 23.0234 91.0078 23.4141C91.0078 23.7363 91.0957 24.0293 91.2715 24.293C91.457 24.5469 91.7158 24.7861 92.0479 25.0107C92.3896 25.2354 92.7998 25.4502 93.2783 25.6553C93.7666 25.8604 94.3135 26.0605 94.9189 26.2559C96.0518 26.6172 97.0576 27.0225 97.9365 27.4717C98.8252 27.9111 99.5723 28.4141 100.178 28.9805C100.793 29.5371 101.257 30.1719 101.569 30.8848C101.892 31.5977 102.053 32.4033 102.053 33.3018C102.053 34.2588 101.867 35.1084 101.496 35.8506C101.125 36.5928 100.593 37.2227 99.8994 37.7402C99.2061 38.248 98.376 38.6338 97.4092 38.8975C96.4424 39.1611 95.3633 39.293 94.1719 39.293C93.0781 39.293 91.999 39.1562 90.9346 38.8828C89.8799 38.5996 88.9229 38.1699 88.0635 37.5938C87.2041 37.0078 86.5156 36.2607 85.998 35.3525C85.4902 34.4346 85.2363 33.3457 85.2363 32.0859H90.3926C90.3926 32.7109 90.4756 33.2383 90.6416 33.668C90.8076 34.0977 91.0518 34.4443 91.374 34.708C91.6963 34.9619 92.0918 35.1475 92.5605 35.2646C93.0293 35.3721 93.5664 35.4258 94.1719 35.4258C94.8262 35.4258 95.3535 35.333 95.7539 35.1475C96.1543 34.9521 96.4473 34.6982 96.6328 34.3857C96.8184 34.0635 96.9111 33.7119 96.9111 33.3311Z" fill="white"/>
</svg>
