<svg width="222" height="55" viewBox="0 0 222 55" fill="none" xmlns="http://www.w3.org/2000/svg">
<path d="M9.54785 37.0664L13.7959 17.6719H16.3301L17.707 19.3271L13.1807 39H10.3828L9.54785 37.0664ZM8.41992 17.6719L12.0088 37.2129L11.0859 39H7.84863L3.32227 17.6719H8.41992ZM20.0361 37.1104L23.5957 17.6719H28.6787L24.1523 39H20.9297L20.0361 37.1104ZM18.1611 17.6719L22.5117 37.1836L21.6328 39H18.835L14.2061 19.2979L15.6416 17.6719H18.1611ZM48.7471 27.9111V28.7754C48.7471 30.4062 48.5176 31.8711 48.0586 33.1699C47.6094 34.459 46.9697 35.5625 46.1396 36.4805C45.3096 37.3887 44.3281 38.0869 43.1953 38.5752C42.0625 39.0537 40.8125 39.293 39.4453 39.293C38.0684 39.293 36.8086 39.0537 35.666 38.5752C34.5332 38.0869 33.5469 37.3887 32.707 36.4805C31.877 35.5625 31.2324 34.459 30.7734 33.1699C30.3242 31.8711 30.0996 30.4062 30.0996 28.7754V27.9111C30.0996 26.2803 30.3242 24.8154 30.7734 23.5166C31.2324 22.2178 31.8721 21.1143 32.6924 20.2061C33.5225 19.2881 34.5039 18.5898 35.6367 18.1113C36.7793 17.623 38.0391 17.3789 39.416 17.3789C40.7832 17.3789 42.0332 17.623 43.166 18.1113C44.3086 18.5898 45.2949 19.2881 46.125 20.2061C46.9551 21.1143 47.5996 22.2178 48.0586 23.5166C48.5176 24.8154 48.7471 26.2803 48.7471 27.9111ZM43.5322 28.7754V27.8818C43.5322 26.8271 43.4395 25.8994 43.2539 25.0986C43.0781 24.2881 42.8145 23.6094 42.4629 23.0625C42.1113 22.5156 41.6768 22.1055 41.1592 21.832C40.6514 21.5488 40.0703 21.4072 39.416 21.4072C38.7324 21.4072 38.1367 21.5488 37.6289 21.832C37.1211 22.1055 36.6963 22.5156 36.3545 23.0625C36.0127 23.6094 35.7539 24.2881 35.5781 25.0986C35.4121 25.8994 35.3291 26.8271 35.3291 27.8818V28.7754C35.3291 29.8203 35.4121 30.748 35.5781 31.5586C35.7539 32.3594 36.0127 33.0381 36.3545 33.5947C36.7061 34.1514 37.1357 34.5713 37.6436 34.8545C38.1611 35.1377 38.7617 35.2793 39.4453 35.2793C40.0996 35.2793 40.6807 35.1377 41.1885 34.8545C41.6963 34.5713 42.1211 34.1514 42.4629 33.5947C42.8145 33.0381 43.0781 32.3594 43.2539 31.5586C43.4395 30.748 43.5322 29.8203 43.5322 28.7754ZM51.4131 17.6719H59.8066C61.4473 17.6719 62.873 17.916 64.084 18.4043C65.2949 18.8926 66.2275 19.6152 66.8818 20.5723C67.5459 21.5293 67.8779 22.7109 67.8779 24.1172C67.8779 25.3379 67.6875 26.3584 67.3066 27.1787C66.9258 27.999 66.3936 28.6777 65.71 29.2148C65.0361 29.7422 64.25 30.1768 63.3516 30.5186L61.667 31.4707H54.6211L54.5918 27.501H59.8066C60.4609 27.501 61.0029 27.3838 61.4326 27.1494C61.8623 26.915 62.1846 26.583 62.3994 26.1533C62.624 25.7139 62.7363 25.1914 62.7363 24.5859C62.7363 23.9707 62.624 23.4434 62.3994 23.0039C62.1748 22.5645 61.8428 22.2275 61.4033 21.9932C60.9736 21.7588 60.4414 21.6416 59.8066 21.6416H56.5547V39H51.4131V17.6719ZM63.0879 39L58.3711 29.5664L63.8203 29.5371L68.5957 38.7803V39H63.0879ZM76.125 17.6719V39H70.9834V17.6719H76.125ZM88.8545 17.6719L80.5928 28.4824L75.7588 33.7705L74.8213 29.0537L77.9121 24.3662L82.5117 17.6719H88.8545ZM82.7754 39L77.2676 29.3906L81.2666 26.4463L88.8545 39H82.7754ZM101.159 33.3311C101.159 32.999 101.11 32.7012 101.013 32.4375C100.915 32.1641 100.734 31.9102 100.471 31.6758C100.207 31.4414 99.8262 31.207 99.3281 30.9727C98.8398 30.7285 98.1953 30.4746 97.3945 30.2109C96.457 29.8984 95.5537 29.5469 94.6846 29.1562C93.8154 28.7559 93.0391 28.292 92.3555 27.7646C91.6719 27.2275 91.1299 26.6025 90.7295 25.8896C90.3291 25.167 90.1289 24.3271 90.1289 23.3701C90.1289 22.4521 90.334 21.627 90.7441 20.8945C91.1543 20.1523 91.7256 19.5225 92.458 19.0049C93.2002 18.4775 94.0693 18.0771 95.0654 17.8037C96.0615 17.5205 97.1504 17.3789 98.332 17.3789C99.8945 17.3789 101.271 17.6523 102.463 18.1992C103.664 18.7363 104.602 19.5029 105.275 20.499C105.959 21.4854 106.301 22.6523 106.301 24H101.188C101.188 23.4629 101.076 22.9893 100.852 22.5791C100.637 22.1689 100.31 21.8467 99.8701 21.6123C99.4307 21.3779 98.8789 21.2607 98.2148 21.2607C97.5703 21.2607 97.0283 21.3584 96.5889 21.5537C96.1494 21.749 95.8174 22.0127 95.5928 22.3447C95.3682 22.667 95.2559 23.0234 95.2559 23.4141C95.2559 23.7363 95.3438 24.0293 95.5195 24.293C95.7051 24.5469 95.9639 24.7861 96.2959 25.0107C96.6377 25.2354 97.0479 25.4502 97.5264 25.6553C98.0146 25.8604 98.5615 26.0605 99.167 26.2559C100.3 26.6172 101.306 27.0225 102.185 27.4717C103.073 27.9111 103.82 28.4141 104.426 28.9805C105.041 29.5371 105.505 30.1719 105.817 30.8848C106.14 31.5977 106.301 32.4033 106.301 33.3018C106.301 34.2588 106.115 35.1084 105.744 35.8506C105.373 36.5928 104.841 37.2227 104.147 37.7402C103.454 38.248 102.624 38.6338 101.657 38.8975C100.69 39.1611 99.6113 39.293 98.4199 39.293C97.3262 39.293 96.2471 39.1562 95.1826 38.8828C94.1279 38.5996 93.1709 38.1699 92.3115 37.5938C91.4521 37.0078 90.7637 36.2607 90.2461 35.3525C89.7383 34.4346 89.4844 33.3457 89.4844 32.0859H94.6406C94.6406 32.7109 94.7236 33.2383 94.8896 33.668C95.0557 34.0977 95.2998 34.4443 95.6221 34.708C95.9443 34.9619 96.3398 35.1475 96.8086 35.2646C97.2773 35.3721 97.8145 35.4258 98.4199 35.4258C99.0742 35.4258 99.6016 35.333 100.002 35.1475C100.402 34.9521 100.695 34.6982 100.881 34.3857C101.066 34.0635 101.159 33.7119 101.159 33.3311Z" fill="white"/>
</svg>
