<svg width="222" height="55" viewBox="0 0 222 55" fill="none" xmlns="http://www.w3.org/2000/svg">
<path d="M16.7549 31.7783H21.8818C21.8135 33.2627 21.4131 34.5713 20.6807 35.7041C19.9482 36.8369 18.9326 37.7207 17.6338 38.3555C16.3447 38.9805 14.8213 39.293 13.0635 39.293C11.6377 39.293 10.3633 39.0537 9.24023 38.5752C8.12695 38.0967 7.17969 37.4082 6.39844 36.5098C5.62695 35.6113 5.03613 34.5225 4.62598 33.2432C4.22559 31.9639 4.02539 30.5234 4.02539 28.9219V27.7646C4.02539 26.1631 4.23535 24.7227 4.65527 23.4434C5.08496 22.1543 5.69043 21.0605 6.47168 20.1621C7.2627 19.2539 8.20996 18.5605 9.31348 18.082C10.417 17.6035 11.6426 17.3643 12.9902 17.3643C14.8457 17.3643 16.4131 17.6963 17.6924 18.3604C18.9717 19.0244 19.9629 19.9375 20.666 21.0996C21.3691 22.252 21.7842 23.5654 21.9111 25.04H16.7842C16.7646 24.2393 16.6279 23.5703 16.374 23.0332C16.1201 22.4863 15.7197 22.0762 15.1729 21.8027C14.626 21.5293 13.8984 21.3926 12.9902 21.3926C12.3555 21.3926 11.8037 21.5098 11.335 21.7441C10.8662 21.9785 10.4756 22.3496 10.1631 22.8574C9.85059 23.3652 9.61621 24.0244 9.45996 24.835C9.31348 25.6357 9.24023 26.6025 9.24023 27.7354V28.9219C9.24023 30.0547 9.30859 31.0215 9.44531 31.8223C9.58203 32.623 9.80176 33.2773 10.1045 33.7852C10.4072 34.293 10.7979 34.6689 11.2764 34.9131C11.7646 35.1475 12.3604 35.2646 13.0635 35.2646C13.8447 35.2646 14.5039 35.1426 15.041 34.8984C15.5781 34.6445 15.9932 34.2637 16.2861 33.7559C16.5791 33.2383 16.7354 32.5791 16.7549 31.7783ZM42.3604 27.9111V28.7754C42.3604 30.4062 42.1309 31.8711 41.6719 33.1699C41.2227 34.459 40.583 35.5625 39.7529 36.4805C38.9229 37.3887 37.9414 38.0869 36.8086 38.5752C35.6758 39.0537 34.4258 39.293 33.0586 39.293C31.6816 39.293 30.4219 39.0537 29.2793 38.5752C28.1465 38.0869 27.1602 37.3887 26.3203 36.4805C25.4902 35.5625 24.8457 34.459 24.3867 33.1699C23.9375 31.8711 23.7129 30.4062 23.7129 28.7754V27.9111C23.7129 26.2803 23.9375 24.8154 24.3867 23.5166C24.8457 22.2178 25.4854 21.1143 26.3057 20.2061C27.1357 19.2881 28.1172 18.5898 29.25 18.1113C30.3926 17.623 31.6523 17.3789 33.0293 17.3789C34.3965 17.3789 35.6465 17.623 36.7793 18.1113C37.9219 18.5898 38.9082 19.2881 39.7383 20.2061C40.5684 21.1143 41.2129 22.2178 41.6719 23.5166C42.1309 24.8154 42.3604 26.2803 42.3604 27.9111ZM37.1455 28.7754V27.8818C37.1455 26.8271 37.0527 25.8994 36.8672 25.0986C36.6914 24.2881 36.4277 23.6094 36.0762 23.0625C35.7246 22.5156 35.29 22.1055 34.7725 21.832C34.2646 21.5488 33.6836 21.4072 33.0293 21.4072C32.3457 21.4072 31.75 21.5488 31.2422 21.832C30.7344 22.1055 30.3096 22.5156 29.9678 23.0625C29.626 23.6094 29.3672 24.2881 29.1914 25.0986C29.0254 25.8994 28.9424 26.8271 28.9424 27.8818V28.7754C28.9424 29.8203 29.0254 30.748 29.1914 31.5586C29.3672 32.3594 29.626 33.0381 29.9678 33.5947C30.3193 34.1514 30.749 34.5713 31.2568 34.8545C31.7744 35.1377 32.375 35.2793 33.0586 35.2793C33.7129 35.2793 34.2939 35.1377 34.8018 34.8545C35.3096 34.5713 35.7344 34.1514 36.0762 33.5947C36.4277 33.0381 36.6914 32.3594 36.8672 31.5586C37.0527 30.748 37.1455 29.8203 37.1455 28.7754ZM47.5752 17.6719H51.7646L56.5254 32.5107L61.2861 17.6719H65.4756L58.2246 39H54.8262L47.5752 17.6719ZM45.0264 17.6719H49.3623L50.168 34.0195V39H45.0264V17.6719ZM63.6885 17.6719H68.0391V39H62.8828V34.0195L63.6885 17.6719ZM76.7988 17.6719V39H71.6719V17.6719H76.7988ZM98.2295 17.6719V39H93.1025L85.5586 25.7285V39H80.417V17.6719H85.5586L93.1025 30.9434V17.6719H98.2295ZM118.928 27.6035V36.3633C118.566 36.7637 118.01 37.1934 117.258 37.6523C116.516 38.1016 115.578 38.4873 114.445 38.8096C113.312 39.1318 111.979 39.293 110.446 39.293C109.03 39.293 107.746 39.0684 106.594 38.6191C105.441 38.1602 104.45 37.4912 103.62 36.6123C102.8 35.7236 102.165 34.6396 101.716 33.3604C101.276 32.0713 101.057 30.5967 101.057 28.9365V27.75C101.057 26.0898 101.281 24.6152 101.73 23.3262C102.18 22.0371 102.81 20.9531 103.62 20.0742C104.44 19.1855 105.402 18.5117 106.506 18.0527C107.619 17.5938 108.84 17.3643 110.168 17.3643C112.131 17.3643 113.728 17.6768 114.958 18.3018C116.188 18.917 117.121 19.7715 117.756 20.8652C118.391 21.9492 118.776 23.2041 118.913 24.6299H113.977C113.879 23.9268 113.693 23.3311 113.42 22.8428C113.156 22.3447 112.775 21.9688 112.277 21.7148C111.779 21.4512 111.135 21.3193 110.344 21.3193C109.729 21.3193 109.167 21.4512 108.659 21.7148C108.161 21.9785 107.736 22.3789 107.385 22.916C107.033 23.4434 106.76 24.1074 106.564 24.9082C106.379 25.709 106.286 26.6465 106.286 27.7207V28.9365C106.286 30.001 106.374 30.9336 106.55 31.7344C106.735 32.5352 107.009 33.2041 107.37 33.7412C107.741 34.2686 108.21 34.6689 108.776 34.9424C109.353 35.2061 110.031 35.3379 110.812 35.3379C111.359 35.3379 111.828 35.2939 112.219 35.2061C112.609 35.1084 112.932 34.9912 113.186 34.8545C113.449 34.708 113.649 34.5713 113.786 34.4443V31.1338H110.212V27.6035H118.928Z" fill="white"/>
</svg>
