<svg width="222" height="55" viewBox="0 0 222 55" fill="none" xmlns="http://www.w3.org/2000/svg">
<path d="M11.5547 39H6.82324L6.85254 35.0449H11.5547C12.5312 35.0449 13.3564 34.8105 14.0303 34.3418C14.7139 33.873 15.2314 33.1748 15.583 32.2471C15.9443 31.3096 16.125 30.1572 16.125 28.79V27.8672C16.125 26.8418 16.0225 25.9434 15.8174 25.1719C15.6221 24.3906 15.3291 23.7412 14.9385 23.2236C14.5479 22.6963 14.0596 22.3008 13.4736 22.0371C12.8975 21.7734 12.2334 21.6416 11.4814 21.6416H6.73535V17.6719H11.4814C12.9268 17.6719 14.25 17.9209 15.4512 18.4189C16.6621 18.9072 17.707 19.6104 18.5859 20.5283C19.4746 21.4365 20.1582 22.5156 20.6367 23.7656C21.125 25.0059 21.3691 26.3828 21.3691 27.8965V28.79C21.3691 30.2939 21.125 31.6709 20.6367 32.9209C20.1582 34.1709 19.4795 35.25 18.6006 36.1582C17.7217 37.0664 16.6816 37.7695 15.4805 38.2676C14.2891 38.7559 12.9805 39 11.5547 39ZM9.76758 17.6719V39H4.62598V17.6719H9.76758ZM38.7275 35.0449V39H27.3604V35.0449H38.7275ZM29.1914 17.6719V39H24.0498V17.6719H29.1914ZM37.2627 26.1387V29.9619H27.3604V26.1387H37.2627ZM38.7715 17.6719V21.6416H27.3604V17.6719H38.7715ZM51.8232 33.3311C51.8232 32.999 51.7744 32.7012 51.6768 32.4375C51.5791 32.1641 51.3984 31.9102 51.1348 31.6758C50.8711 31.4414 50.4902 31.207 49.9922 30.9727C49.5039 30.7285 48.8594 30.4746 48.0586 30.2109C47.1211 29.8984 46.2178 29.5469 45.3486 29.1562C44.4795 28.7559 43.7031 28.292 43.0195 27.7646C42.3359 27.2275 41.7939 26.6025 41.3936 25.8896C40.9932 25.167 40.793 24.3271 40.793 23.3701C40.793 22.4521 40.998 21.627 41.4082 20.8945C41.8184 20.1523 42.3896 19.5225 43.1221 19.0049C43.8643 18.4775 44.7334 18.0771 45.7295 17.8037C46.7256 17.5205 47.8145 17.3789 48.9961 17.3789C50.5586 17.3789 51.9355 17.6523 53.127 18.1992C54.3281 18.7363 55.2656 19.5029 55.9395 20.499C56.623 21.4854 56.9648 22.6523 56.9648 24H51.8525C51.8525 23.4629 51.7402 22.9893 51.5156 22.5791C51.3008 22.1689 50.9736 21.8467 50.5342 21.6123C50.0947 21.3779 49.543 21.2607 48.8789 21.2607C48.2344 21.2607 47.6924 21.3584 47.2529 21.5537C46.8135 21.749 46.4814 22.0127 46.2568 22.3447C46.0322 22.667 45.9199 23.0234 45.9199 23.4141C45.9199 23.7363 46.0078 24.0293 46.1836 24.293C46.3691 24.5469 46.6279 24.7861 46.96 25.0107C47.3018 25.2354 47.7119 25.4502 48.1904 25.6553C48.6787 25.8604 49.2256 26.0605 49.8311 26.2559C50.9639 26.6172 51.9697 27.0225 52.8486 27.4717C53.7373 27.9111 54.4844 28.4141 55.0898 28.9805C55.7051 29.5371 56.1689 30.1719 56.4814 30.8848C56.8037 31.5977 56.9648 32.4033 56.9648 33.3018C56.9648 34.2588 56.7793 35.1084 56.4082 35.8506C56.0371 36.5928 55.5049 37.2227 54.8115 37.7402C54.1182 38.248 53.2881 38.6338 52.3213 38.8975C51.3545 39.1611 50.2754 39.293 49.084 39.293C47.9902 39.293 46.9111 39.1562 45.8467 38.8828C44.792 38.5996 43.835 38.1699 42.9756 37.5938C42.1162 37.0078 41.4277 36.2607 40.9102 35.3525C40.4023 34.4346 40.1484 33.3457 40.1484 32.0859H45.3047C45.3047 32.7109 45.3877 33.2383 45.5537 33.668C45.7197 34.0977 45.9639 34.4443 46.2861 34.708C46.6084 34.9619 47.0039 35.1475 47.4727 35.2646C47.9414 35.3721 48.4785 35.4258 49.084 35.4258C49.7383 35.4258 50.2656 35.333 50.666 35.1475C51.0664 34.9521 51.3594 34.6982 51.5449 34.3857C51.7305 34.0635 51.8232 33.7119 51.8232 33.3311ZM65.0801 17.6719V39H59.9531V17.6719H65.0801ZM86.1445 27.6035V36.3633C85.7832 36.7637 85.2266 37.1934 84.4746 37.6523C83.7324 38.1016 82.7949 38.4873 81.6621 38.8096C80.5293 39.1318 79.1963 39.293 77.6631 39.293C76.2471 39.293 74.9629 39.0684 73.8105 38.6191C72.6582 38.1602 71.667 37.4912 70.8369 36.6123C70.0166 35.7236 69.3818 34.6396 68.9326 33.3604C68.4932 32.0713 68.2734 30.5967 68.2734 28.9365V27.75C68.2734 26.0898 68.498 24.6152 68.9473 23.3262C69.3965 22.0371 70.0264 20.9531 70.8369 20.0742C71.6572 19.1855 72.6191 18.5117 73.7227 18.0527C74.8359 17.5938 76.0566 17.3643 77.3848 17.3643C79.3477 17.3643 80.9443 17.6768 82.1748 18.3018C83.4053 18.917 84.3379 19.7715 84.9727 20.8652C85.6074 21.9492 85.9932 23.2041 86.1299 24.6299H81.1934C81.0957 23.9268 80.9102 23.3311 80.6367 22.8428C80.373 22.3447 79.9922 21.9688 79.4941 21.7148C78.9961 21.4512 78.3516 21.3193 77.5605 21.3193C76.9453 21.3193 76.3838 21.4512 75.876 21.7148C75.3779 21.9785 74.9531 22.3789 74.6016 22.916C74.25 23.4434 73.9766 24.1074 73.7812 24.9082C73.5957 25.709 73.5029 26.6465 73.5029 27.7207V28.9365C73.5029 30.001 73.5908 30.9336 73.7666 31.7344C73.9521 32.5352 74.2256 33.2041 74.5869 33.7412C74.958 34.2686 75.4268 34.6689 75.9932 34.9424C76.5693 35.2061 77.248 35.3379 78.0293 35.3379C78.5762 35.3379 79.0449 35.2939 79.4355 35.2061C79.8262 35.1084 80.1484 34.9912 80.4023 34.8545C80.666 34.708 80.8662 34.5713 81.0029 34.4443V31.1338H77.4287V27.6035H86.1445ZM106.96 17.6719V39H101.833L94.2891 25.7285V39H89.1475V17.6719H94.2891L101.833 30.9434V17.6719H106.96Z" fill="white"/>
</svg>
